<svg width="24" height="24" viewBox="0 0 24 24" fill="none" xmlns="http://www.w3.org/2000/svg">
<path d="M13.8853 10.1139L14.5252 10.7619L15.1452 11.4085L15.7572 12.0645C20.3677 17.0831 23.053 21.6883 21.8997 22.8416C21.3663 23.3749 20.0917 23.087 18.3798 22.1656C16.2711 23.4878 13.8038 24.122 11.3189 23.9806C8.83409 23.8392 6.4546 22.9291 4.50955 21.3763L8.48276 17.4031C9.04105 17.5524 9.63274 17.5163 10.1687 17.3002C10.7047 17.0842 11.156 16.6998 11.4547 16.205C11.7533 15.7103 11.8832 15.1319 11.8246 14.5569C11.7661 13.982 11.5224 13.4416 11.1301 13.0172C10.7379 12.5927 10.2184 12.3072 9.64983 12.2036C9.08128 12.1 8.49446 12.1839 7.97772 12.4427C7.46099 12.7014 7.0423 13.1211 6.78471 13.6384C6.52712 14.1558 6.44457 14.7428 6.54949 15.3111L6.59615 15.5178L2.62428 19.491C1.07107 17.5456 0.160802 15.1656 0.0193961 12.6803C-0.122009 10.1949 0.512439 7.72699 1.83497 5.61798C0.912336 3.90734 0.624345 2.63403 1.15766 2.09938C2.46029 0.798072 8.15744 4.386 13.8853 10.1126V10.1139ZM22.3703 1.62872C22.6356 1.89384 22.8419 2.21192 22.9759 2.5622C23.1099 2.91249 23.1685 3.28709 23.1478 3.66155C23.1272 4.03602 23.0278 4.40192 22.8561 4.73536C22.6845 5.0688 22.4444 5.36228 22.1517 5.59664C23.2038 7.2677 23.8281 9.17226 23.9693 11.1419C24.1104 13.1116 23.7641 15.0857 22.961 16.8897C21.3757 14.2845 18.8678 11.3245 15.7705 8.22859L15.0545 7.51927C12.2173 4.74733 9.51339 2.5007 7.1108 1.0394C8.91498 0.236016 10.8893 -0.110415 12.8592 0.0307426C14.8291 0.171901 16.7339 0.796298 18.4051 1.84872C18.6394 1.55627 18.9326 1.31648 19.2658 1.14497C19.5989 0.973461 19.9645 0.874089 20.3386 0.853332C20.7127 0.832575 21.087 0.890899 21.4371 1.0245C21.7872 1.1581 22.1051 1.36398 22.3703 1.62872Z" fill="url(#paint0_linear_240_15)"/>
<defs>
<linearGradient id="paint0_linear_240_15" x1="12" y1="0" x2="12" y2="24" gradientUnits="userSpaceOnUse">
<stop stop-color="#8C0808"/>
<stop offset="1" stop-color="#D31414"/>
</linearGradient>
</defs>
</svg>
