<svg width="658" height="438" viewBox="0 0 658 438" fill="none" xmlns="http://www.w3.org/2000/svg">
<g opacity="0.5">
<path d="M348.902 137.845C354.002 137.845 358.136 141.535 358.136 146.088V429.757C358.136 434.309 354.002 438 348.902 438H300.042C294.942 438 290.808 434.309 290.808 429.757V146.088C290.808 141.535 294.942 137.845 300.042 137.845H348.902Z" fill="url(#paint0_linear_8_2)"/>
<path d="M198.569 2.35462C202.262 -0.784879 208.25 -0.784873 211.943 2.35463L365.077 132.528C368.771 135.668 368.771 140.758 365.077 143.897L330.844 172.998C327.151 176.138 321.163 176.138 317.469 172.998L164.336 42.8245C160.642 39.685 160.642 34.5948 164.336 31.4553L198.569 2.35462Z" fill="url(#paint1_linear_8_2)"/>
<path d="M253.404 139.729C253.404 135.176 257.538 131.486 262.637 131.486H384.81C389.91 131.486 394.044 135.176 394.044 139.729V179.203C394.044 183.756 389.91 187.447 384.81 187.447H262.637C257.538 187.447 253.404 183.756 253.404 179.203V139.729Z" fill="url(#paint2_linear_8_2)"/>
<path d="M7.37216 274.37C-2.4574 281.206 -2.45738 294.474 7.37218 301.31L180.422 421.667C198.161 434.004 221.062 413.641 207.313 397.756L121.214 298.28C115.891 292.131 115.891 283.549 121.214 277.399L207.313 177.924C221.062 162.039 198.161 141.676 180.422 154.013L7.37216 274.37Z" fill="url(#paint3_linear_8_2)"/>
<path d="M650.628 274.37C660.457 281.206 660.457 294.474 650.628 301.31L477.578 421.667C459.839 434.004 436.938 413.641 450.687 397.756L536.786 298.28C542.109 292.131 542.109 283.549 536.786 277.399L450.687 177.924C436.938 162.039 459.839 141.676 477.578 154.013L650.628 274.37Z" fill="url(#paint4_linear_8_2)"/>
</g>
<defs>
<linearGradient id="paint0_linear_8_2" x1="329" y1="0" x2="747.22" y2="0" gradientUnits="userSpaceOnUse">
<stop stop-color="#BF1B1B"/>
<stop offset="1" stop-color="#5020B6" stop-opacity="0.9"/>
</linearGradient>
<linearGradient id="paint1_linear_8_2" x1="281.654" y1="-9.20043" x2="512.62" y2="27.3028" gradientUnits="userSpaceOnUse">
<stop stop-color="#D51919" stop-opacity="0.83"/>
<stop offset="1" stop-color="#A52698"/>
</linearGradient>
<linearGradient id="paint2_linear_8_2" x1="329" y1="0" x2="329" y2="438" gradientUnits="userSpaceOnUse">
<stop stop-color="#3378B8"/>
<stop offset="1" stop-color="#2A36A5"/>
</linearGradient>
<linearGradient id="paint3_linear_8_2" x1="329" y1="0" x2="329" y2="438" gradientUnits="userSpaceOnUse">
<stop stop-color="#DD0101"/>
<stop offset="1" stop-color="#3811D0" stop-opacity="0.9"/>
</linearGradient>
<linearGradient id="paint4_linear_8_2" x1="669.996" y1="287.84" x2="358.021" y2="287.84" gradientUnits="userSpaceOnUse">
<stop stop-color="#DD0707"/>
<stop offset="1" stop-color="#4F0ED9"/>
</linearGradient>
</defs>
</svg>
