<svg width="27" height="26" viewBox="0 0 27 26" fill="none" xmlns="http://www.w3.org/2000/svg">
<path d="M1.12554 4.1605C0.344491 3.37946 0.344491 2.11313 1.12554 1.33208L1.83265 0.624971C2.61369 -0.156078 3.88002 -0.156078 4.66107 0.624971L25.8743 21.8382C26.6553 22.6192 26.6553 23.8856 25.8743 24.6666L25.1672 25.3737C24.3861 26.1548 23.1198 26.1548 22.3387 25.3737L1.12554 4.1605Z" fill="black"/>
<path d="M4.66038 25.3744C3.87933 26.1554 2.613 26.1554 1.83196 25.3744L1.12485 24.6673C0.3438 23.8862 0.3438 22.6199 1.12485 21.8389L22.3381 0.625661C23.1191 -0.155387 24.3854 -0.155387 25.1665 0.625662L25.8736 1.33277C26.6546 2.11382 26.6546 3.38015 25.8736 4.1612L4.66038 25.3744Z" fill="black"/>
</svg>
