<svg width="102" height="102" viewBox="0 0 102 102" fill="none" xmlns="http://www.w3.org/2000/svg">
<rect width="102" height="102" fill="#FAFAFA"/>
<path d="M29.6034 75.5C26.842 75.5 24.5558 73.242 25.0737 70.5296C25.4112 68.7621 25.9287 67.0293 26.6206 65.3589C27.9523 62.1438 29.9043 59.2224 32.3651 56.7617C34.8258 54.3009 37.7472 52.3489 40.9623 51.0172C44.1774 49.6854 47.6234 49 51.1034 49C54.5834 49 58.0294 49.6854 61.2445 51.0172C64.4597 52.349 67.381 54.3009 69.8417 56.7617C72.3025 59.2224 74.2545 62.1438 75.5862 65.3589C76.2781 67.0294 76.7956 68.7621 77.1331 70.5296C77.651 73.242 75.3648 75.5 72.6034 75.5L29.6034 75.5Z" fill="url(#paint0_linear_263_4)"/>
<path d="M65.6034 41C65.6034 49.2843 58.8877 56 50.6034 56C42.3191 56 35.6034 49.2843 35.6034 41C35.6034 32.7157 42.3191 26 50.6034 26C58.8877 26 65.6034 32.7157 65.6034 41Z" fill="url(#paint1_linear_263_4)"/>
<defs>
<linearGradient id="paint0_linear_263_4" x1="50.6034" y1="26" x2="50.6034" y2="56" gradientUnits="userSpaceOnUse">
<stop stop-color="#f5f3f3ff"/>
<stop offset="1" stop-color="#dededeff"/>
</linearGradient>
<linearGradient id="paint1_linear_263_4" x1="50.6034" y1="26" x2="50.6034" y2="56" gradientUnits="userSpaceOnUse">
<stop stop-color="#f5f3f3ff"/>
<stop offset="1" stop-color="#dededeff"/>
</linearGradient>
</defs>
</svg>
