<svg width="77" height="77" viewBox="0 0 77 77" fill="none" xmlns="http://www.w3.org/2000/svg">
<circle cx="38.5" cy="38.5" r="36" stroke="#E51C1C" stroke-width="5"/>
<path d="M42.2328 31.7V59H34.7828V31.7H42.2328ZM38.5328 21C39.6328 21 40.5828 21.2667 41.3828 21.8C42.1828 22.3 42.5828 23.25 42.5828 24.65C42.5828 26.0167 42.1828 26.9667 41.3828 27.5C40.5828 28.0333 39.6328 28.3 38.5328 28.3C37.3995 28.3 36.4328 28.0333 35.6328 27.5C34.8661 26.9667 34.4828 26.0167 34.4828 24.65C34.4828 23.25 34.8661 22.3 35.6328 21.8C36.4328 21.2667 37.3995 21 38.5328 21Z" fill="#E51C1C"/>
</svg>
