<svg width="47" height="42" viewBox="0 0 47 42" fill="none" xmlns="http://www.w3.org/2000/svg">
<path d="M22 10H24V25H22V10Z" fill="url(#paint0_linear_247_21)"/>
<path d="M39.3252 33.8481L38.3252 35.5802L23.0003 26.7323L24 25L39.3252 33.8481Z" fill="url(#paint1_linear_247_21)"/>
<path d="M7.70898 35.5688L6.70898 33.8368L22.0147 25L23.0147 26.7321L7.70898 35.5688Z" fill="url(#paint2_linear_247_21)"/>
<path d="M30 7C30 10.866 26.866 14 23 14C19.134 14 16 10.866 16 7C16 3.13401 19.134 0 23 0C26.866 0 30 3.13401 30 7Z" fill="url(#paint3_linear_247_21)"/>
<path d="M47 35C47 38.866 43.866 42 40 42C36.134 42 33 38.866 33 35C33 31.134 36.134 28 40 28C43.866 28 47 31.134 47 35Z" fill="url(#paint4_linear_247_21)"/>
<path d="M14 35C14 38.866 10.866 42 7 42C3.13401 42 0 38.866 0 35C0 31.134 3.13401 28 7 28C10.866 28 14 31.134 14 35Z" fill="url(#paint5_linear_247_21)"/>
<path d="M31 26C31 30.4183 27.4183 34 23 34C18.5817 34 15 30.4183 15 26C15 21.5817 18.5817 18 23 18C27.4183 18 31 21.5817 31 26Z" fill="url(#paint6_linear_247_21)"/>
<defs>
<linearGradient id="paint0_linear_247_21" x1="23.5" y1="0" x2="23.5" y2="42" gradientUnits="userSpaceOnUse">
<stop stop-color="#B41717"/>
<stop offset="1" stop-color="#4E0A0A"/>
</linearGradient>
<linearGradient id="paint1_linear_247_21" x1="23.5" y1="0" x2="23.5" y2="42" gradientUnits="userSpaceOnUse">
<stop stop-color="#B41717"/>
<stop offset="1" stop-color="#4E0A0A"/>
</linearGradient>
<linearGradient id="paint2_linear_247_21" x1="23.5" y1="0" x2="23.5" y2="42" gradientUnits="userSpaceOnUse">
<stop stop-color="#B41717"/>
<stop offset="1" stop-color="#4E0A0A"/>
</linearGradient>
<linearGradient id="paint3_linear_247_21" x1="23.5" y1="0" x2="23.5" y2="42" gradientUnits="userSpaceOnUse">
<stop stop-color="#B41717"/>
<stop offset="1" stop-color="#4E0A0A"/>
</linearGradient>
<linearGradient id="paint4_linear_247_21" x1="23.5" y1="0" x2="23.5" y2="42" gradientUnits="userSpaceOnUse">
<stop stop-color="#B41717"/>
<stop offset="1" stop-color="#4E0A0A"/>
</linearGradient>
<linearGradient id="paint5_linear_247_21" x1="23.5" y1="0" x2="23.5" y2="42" gradientUnits="userSpaceOnUse">
<stop stop-color="#B41717"/>
<stop offset="1" stop-color="#4E0A0A"/>
</linearGradient>
<linearGradient id="paint6_linear_247_21" x1="23" y1="18" x2="23" y2="34" gradientUnits="userSpaceOnUse">
<stop stop-color="#B41717"/>
<stop offset="1" stop-color="#4E0A0A"/>
</linearGradient>
</defs>
</svg>
