<svg width="48" height="43" viewBox="0 0 48 43" fill="none" xmlns="http://www.w3.org/2000/svg">
<path d="M13 34.2319L12 32.4999L18.0622 28.9999L19.0622 30.7319L13 34.2319Z" fill="url(#paint0_linear_238_16)"/>
<path d="M36.0625 32.5L35.0625 34.2321L29.0003 30.732L30.0003 29L36.0625 32.5Z" fill="url(#paint1_linear_238_16)"/>
<path d="M31 7C31 10.866 27.866 14 24 14C20.134 14 17 10.866 17 7C17 3.13401 20.134 0 24 0C27.866 0 31 3.13401 31 7Z" fill="url(#paint2_linear_238_16)"/>
<path d="M23 13H25V20H23V13Z" fill="url(#paint3_linear_238_16)"/>
<path d="M48 36C48 39.866 44.866 43 41 43C37.134 43 34 39.866 34 36C34 32.134 37.134 29 41 29C44.866 29 48 32.134 48 36Z" fill="url(#paint4_linear_238_16)"/>
<path d="M14 36C14 39.866 10.866 43 7 43C3.13401 43 0 39.866 0 36C0 32.134 3.13401 29 7 29C10.866 29 14 32.134 14 36Z" fill="url(#paint5_linear_238_16)"/>
<path d="M31 26C31 29.866 27.866 33 24 33C20.134 33 17 29.866 17 26C17 22.134 20.134 19 24 19C27.866 19 31 22.134 31 26ZM18.4 26C18.4 29.0928 20.9072 31.6 24 31.6C27.0928 31.6 29.6 29.0928 29.6 26C29.6 22.9072 27.0928 20.4 24 20.4C20.9072 20.4 18.4 22.9072 18.4 26Z" fill="url(#paint6_linear_238_16)"/>
<path d="M28.8581 6.33736L30.5902 5.33736L45.7706 31.6306L44.0385 32.6306L28.8581 6.33736Z" fill="url(#paint7_linear_238_16)"/>
<path d="M17.2911 5.64092L19.0232 6.64092L4.14041 32.4187L2.40836 31.4187L17.2911 5.64092Z" fill="url(#paint8_linear_238_16)"/>
<path d="M8 42V40H39V42H8Z" fill="url(#paint9_linear_238_16)"/>
<defs>
<linearGradient id="paint0_linear_238_16" x1="24" y1="0" x2="24" y2="43" gradientUnits="userSpaceOnUse">
<stop stop-color="#B51111"/>
<stop offset="1" stop-color="#4F0808"/>
</linearGradient>
<linearGradient id="paint1_linear_238_16" x1="24" y1="0" x2="24" y2="43" gradientUnits="userSpaceOnUse">
<stop stop-color="#B51111"/>
<stop offset="1" stop-color="#4F0808"/>
</linearGradient>
<linearGradient id="paint2_linear_238_16" x1="24" y1="0" x2="24" y2="43" gradientUnits="userSpaceOnUse">
<stop stop-color="#B51111"/>
<stop offset="1" stop-color="#4F0808"/>
</linearGradient>
<linearGradient id="paint3_linear_238_16" x1="24" y1="0" x2="24" y2="43" gradientUnits="userSpaceOnUse">
<stop stop-color="#B51111"/>
<stop offset="1" stop-color="#4F0808"/>
</linearGradient>
<linearGradient id="paint4_linear_238_16" x1="24" y1="0" x2="24" y2="43" gradientUnits="userSpaceOnUse">
<stop stop-color="#B51111"/>
<stop offset="1" stop-color="#4F0808"/>
</linearGradient>
<linearGradient id="paint5_linear_238_16" x1="24" y1="0" x2="24" y2="43" gradientUnits="userSpaceOnUse">
<stop stop-color="#B51111"/>
<stop offset="1" stop-color="#4F0808"/>
</linearGradient>
<linearGradient id="paint6_linear_238_16" x1="24" y1="0" x2="24" y2="43" gradientUnits="userSpaceOnUse">
<stop stop-color="#B51111"/>
<stop offset="1" stop-color="#4F0808"/>
</linearGradient>
<linearGradient id="paint7_linear_238_16" x1="24" y1="0" x2="24" y2="43" gradientUnits="userSpaceOnUse">
<stop stop-color="#B51111"/>
<stop offset="1" stop-color="#4F0808"/>
</linearGradient>
<linearGradient id="paint8_linear_238_16" x1="24" y1="0" x2="24" y2="43" gradientUnits="userSpaceOnUse">
<stop stop-color="#B51111"/>
<stop offset="1" stop-color="#4F0808"/>
</linearGradient>
<linearGradient id="paint9_linear_238_16" x1="24" y1="0" x2="24" y2="43" gradientUnits="userSpaceOnUse">
<stop stop-color="#B51111"/>
<stop offset="1" stop-color="#4F0808"/>
</linearGradient>
</defs>
</svg>
