<svg width="57" height="42" viewBox="0 0 57 42" fill="none" xmlns="http://www.w3.org/2000/svg">
<g filter="url(#filter0_d_168_1005)">
<path d="M28.0002 27.56C25.791 27.56 23.9492 25.7403 24.5113 23.6039C24.6718 22.994 24.8696 22.3938 25.1039 21.8073C25.8326 19.9834 26.9007 18.3262 28.2471 16.9303C29.5936 15.5344 31.192 14.4271 32.9513 13.6716C34.7105 12.9162 36.596 12.5273 38.5002 12.5273C40.4043 12.5273 42.2899 12.9162 44.0491 13.6716C45.8083 14.4271 47.4068 15.5344 48.7532 16.9303C50.0997 18.3262 51.1677 19.9834 51.8964 21.8073C52.1308 22.3939 52.3286 22.994 52.489 23.6039C53.0512 25.7403 51.2093 27.56 49.0002 27.56L38.5002 27.56L28.0002 27.56Z" fill="url(#paint0_linear_168_1005)"/>
<path d="M46.5553 8.76906C46.5553 13.6121 42.7684 17.5381 38.097 17.5381C33.4256 17.5381 29.6387 13.6121 29.6387 8.76906C29.6387 3.92604 33.4256 0 38.097 0C42.7684 0 46.5553 3.92604 46.5553 8.76906Z" fill="url(#paint1_linear_168_1005)"/>
<path d="M8.00016 27.56C5.79102 27.56 3.94916 25.7403 4.51129 23.6039C4.67177 22.994 4.86955 22.3938 5.10391 21.8073C5.8326 19.9834 6.90067 18.3262 8.24712 16.9303C9.59357 15.5344 11.192 14.4271 12.9513 13.6716C14.7105 12.9162 16.596 12.5273 18.5002 12.5273C20.4043 12.5273 22.2899 12.9162 24.0491 13.6716C25.8083 14.4271 27.4068 15.5344 28.7532 16.9303C30.0997 18.3262 31.1677 19.9834 31.8964 21.8073C32.1308 22.3939 32.3286 22.994 32.489 23.6039C33.0512 25.7403 31.2093 27.56 29.0002 27.56L18.5002 27.56L8.00016 27.56Z" fill="url(#paint2_linear_168_1005)"/>
<path d="M26.5553 8.76906C26.5553 13.6121 22.7684 17.5381 18.097 17.5381C13.4256 17.5381 9.63867 13.6121 9.63867 8.76906C9.63867 3.92604 13.4256 0 18.097 0C22.7684 0 26.5553 3.92604 26.5553 8.76906Z" fill="url(#paint3_linear_168_1005)"/>
<path d="M18.5001 33.9672C15.7386 33.9672 13.4227 31.6724 14.2967 29.0529C14.3909 28.7707 14.4933 28.4911 14.6038 28.2145C15.3325 26.3906 16.4006 24.7334 17.747 23.3375C19.0935 21.9416 20.6919 20.8343 22.4512 20.0789C24.2104 19.3234 26.0959 18.9346 28.0001 18.9346C29.9042 18.9346 31.7898 19.3234 33.549 20.0789C35.3082 20.8343 36.9067 21.9416 38.2531 23.3375C39.5996 24.7335 40.6676 26.3907 41.3963 28.2145C41.5068 28.4911 41.6092 28.7707 41.7034 29.053C42.5774 31.6724 40.2615 33.9673 37.5001 33.9673L28.0001 33.9672L18.5001 33.9672Z" fill="url(#paint4_linear_168_1005)"/>
<path d="M36.0553 15.1763C36.0553 20.0193 32.2684 23.9454 27.597 23.9454C22.9256 23.9454 19.1387 20.0193 19.1387 15.1763C19.1387 10.3333 22.9256 6.40723 27.597 6.40723C32.2684 6.40723 36.0553 10.3333 36.0553 15.1763Z" fill="url(#paint5_linear_168_1005)"/>
</g>
<defs>
<filter id="filter0_d_168_1005" x="0.40918" y="0" width="56.1816" height="41.9673" filterUnits="userSpaceOnUse" color-interpolation-filters="sRGB">
<feFlood flood-opacity="0" result="BackgroundImageFix"/>
<feColorMatrix in="SourceAlpha" type="matrix" values="0 0 0 0 0 0 0 0 0 0 0 0 0 0 0 0 0 0 127 0" result="hardAlpha"/>
<feOffset dy="4"/>
<feGaussianBlur stdDeviation="2"/>
<feComposite in2="hardAlpha" operator="out"/>
<feColorMatrix type="matrix" values="0 0 0 0 0 0 0 0 0 0 0 0 0 0 0 0 0 0 0.25 0"/>
<feBlend mode="normal" in2="BackgroundImageFix" result="effect1_dropShadow_168_1005"/>
<feBlend mode="normal" in="SourceGraphic" in2="effect1_dropShadow_168_1005" result="shape"/>
</filter>
<linearGradient id="paint0_linear_168_1005" x1="38.5002" y1="12.5273" x2="38.5002" y2="42.5927" gradientUnits="userSpaceOnUse">
<stop stop-color="#E51C1C"/>
<stop offset="1" stop-color="#7F1010"/>
</linearGradient>
<linearGradient id="paint1_linear_168_1005" x1="38.097" y1="0" x2="38.097" y2="17.5381" gradientUnits="userSpaceOnUse">
<stop stop-color="#E51C1C"/>
<stop offset="1" stop-color="#7F1010"/>
</linearGradient>
<linearGradient id="paint2_linear_168_1005" x1="18.5002" y1="12.5273" x2="18.5002" y2="42.5927" gradientUnits="userSpaceOnUse">
<stop stop-color="#E51C1C"/>
<stop offset="1" stop-color="#7F1010"/>
</linearGradient>
<linearGradient id="paint3_linear_168_1005" x1="18.097" y1="0" x2="18.097" y2="17.5381" gradientUnits="userSpaceOnUse">
<stop stop-color="#E51C1C"/>
<stop offset="1" stop-color="#7F1010"/>
</linearGradient>
<linearGradient id="paint4_linear_168_1005" x1="28.0001" y1="18.9346" x2="28.0001" y2="48.9999" gradientUnits="userSpaceOnUse">
<stop stop-color="#E51C1C"/>
<stop offset="1" stop-color="#7F1010"/>
</linearGradient>
<linearGradient id="paint5_linear_168_1005" x1="27.597" y1="6.40723" x2="27.597" y2="23.9454" gradientUnits="userSpaceOnUse">
<stop stop-color="#E51C1C"/>
<stop offset="1" stop-color="#7F1010"/>
</linearGradient>
</defs>
</svg>
