<svg width="120" height="92" viewBox="0 0 120 92" fill="none" xmlns="http://www.w3.org/2000/svg">
<rect x="2.64587" y="2.03141" width="114.708" height="87.3194" rx="23" fill="#FAFAFA" stroke="#0EA8D9" stroke-width="4"/>
<line x1="4.64587" y1="27.2565" x2="115.364" y2="27.2565" stroke="#0EA8D9" stroke-width="4"/>
<ellipse cx="97.6559" cy="16.644" rx="4.89526" ry="4.96859" fill="#0EA8D9"/>
<ellipse cx="81.0873" cy="16.644" rx="4.89526" ry="4.96859" fill="#0EA8D9"/>
<line y1="-3.5" x2="38.1773" y2="-3.5" transform="matrix(0.271872 -0.962333 0.960161 0.279446 59.6234 78.2262)" stroke="#0EA8D9" stroke-width="7"/>
<path d="M38.1156 59.4179C36.7449 58.2223 36.7449 56.0918 38.1156 54.8963L44.4717 49.3522C47.0697 47.0861 50.8131 50.2739 48.9897 53.1997L47.5123 55.5704C46.9071 56.5416 46.9071 57.7725 47.5123 58.7437L48.9897 61.1145C50.8131 64.0403 47.0697 67.228 44.4717 64.9619L38.1156 59.4179Z" fill="#0EA8D9"/>
<path d="M86.4031 59.4179C87.7737 58.2223 87.7737 56.0918 86.4031 54.8963L80.047 49.3522C77.449 47.0861 73.7056 50.2739 75.5289 53.1997L77.0063 55.5704C77.6116 56.5416 77.6116 57.7725 77.0063 58.7437L75.5289 61.1145C73.7056 64.0403 77.449 67.228 80.047 64.9619L86.4031 59.4179Z" fill="#0EA8D9"/>
</svg>
