<svg width="44" height="43" viewBox="0 0 44 43" fill="none" xmlns="http://www.w3.org/2000/svg">
<path d="M29.3187 4.02318C29.9589 2.49502 31.7311 1.75786 33.1551 2.60489C36.5233 4.6084 39.2959 7.50772 41.1472 11.0052C43.4688 15.3912 44.1979 20.4465 43.21 25.3098C42.2222 30.173 39.5787 34.5433 35.7299 37.676C31.8811 40.8087 27.0651 42.51 22.1026 42.4899C17.1401 42.4698 12.338 40.7297 8.51465 37.566C4.69129 34.4023 2.08318 30.0108 1.13471 25.1397C0.186238 20.2686 0.956093 15.2193 3.3131 10.8522C5.19261 7.36985 7.9886 4.49305 11.3729 2.51683C12.8037 1.68135 14.5699 2.43281 15.1977 3.9661L15.769 5.36117C16.3968 6.89445 15.6366 8.62228 14.2727 9.56306C12.4699 10.8066 10.9733 12.4659 9.91977 14.418C8.38771 17.2566 7.88731 20.5386 8.50381 23.7048C9.12032 26.871 10.8156 29.7255 13.3008 31.7819C15.786 33.8383 18.9073 34.9694 22.1329 34.9825C25.3586 34.9955 28.4889 33.8897 30.9907 31.8534C33.4924 29.8172 35.2107 26.9765 35.8528 23.8154C36.4949 20.6543 36.021 17.3683 34.5119 14.5174C33.4742 12.5569 31.9911 10.8856 30.1984 9.62744C28.8422 8.67566 28.0959 6.94174 28.7361 5.41359L29.3187 4.02318Z" fill="url(#paint0_linear_247_24)"/>
<path d="M18.0274 4.71239C18.0274 2.59063 19.7474 0.870605 21.8692 0.870605C23.991 0.870605 25.711 2.59063 25.711 4.7124V27.1228C25.711 29.2446 23.991 30.9646 21.8692 30.9646C19.7474 30.9646 18.0274 29.2446 18.0274 27.1228V4.71239Z" fill="url(#paint1_linear_247_24)"/>
<defs>
<linearGradient id="paint0_linear_247_24" x1="21.8691" y1="0.870605" x2="21.8691" y2="30.9646" gradientUnits="userSpaceOnUse">
<stop stop-color="#BC0F0F"/>
<stop offset="1" stop-color="#6B0C0C"/>
</linearGradient>
<linearGradient id="paint1_linear_247_24" x1="21.8691" y1="0.870605" x2="21.8691" y2="30.9646" gradientUnits="userSpaceOnUse">
<stop stop-color="#BC0F0F"/>
<stop offset="1" stop-color="#6B0C0C"/>
</linearGradient>
</defs>
</svg>
