<svg width="44" height="43" viewBox="0 0 44 43" fill="none" xmlns="http://www.w3.org/2000/svg">
<path d="M29.3196 4.02304C29.9599 2.49488 31.7321 1.75773 33.156 2.60475C36.5243 4.60826 39.2969 7.50758 41.1482 11.005C43.4698 15.3911 44.1988 20.4464 43.211 25.3096C42.2232 30.1729 39.5797 34.5432 35.7309 37.6759C31.882 40.8086 27.0661 42.5098 22.1036 42.4898C17.141 42.4697 12.339 40.7296 8.51562 37.5659C4.69226 34.4022 2.08416 30.0106 1.13569 25.1396C0.187217 20.2685 0.957072 15.2192 3.31408 10.8521C5.19359 7.36972 7.98958 4.49291 11.3739 2.51669C12.8047 1.68121 14.5708 2.43268 15.1987 3.96596L15.77 5.36103C16.3978 6.89431 15.6376 8.62214 14.2737 9.56292C12.4709 10.8065 10.9743 12.4658 9.92075 14.4178C8.38869 17.2565 7.88829 20.5385 8.50479 23.7047C9.1213 26.8709 10.8166 29.7254 13.3018 31.7818C15.7869 33.8382 18.9083 34.9693 22.1339 34.9823C25.3596 34.9954 28.4899 33.8895 30.9917 31.8533C33.4934 29.8171 35.2117 26.9764 35.8538 23.8152C36.4958 20.6541 36.022 17.3682 34.5129 14.5173C33.4752 12.5568 31.9921 10.8854 30.1994 9.6273C28.8432 8.67552 28.0969 6.94161 28.7371 5.41345L29.3196 4.02304Z" fill="url(#paint0_linear_0_1)"/>
<path d="M18.0283 4.71239C18.0283 2.59063 19.7483 0.870605 21.8701 0.870605C23.9919 0.870605 25.7119 2.59063 25.7119 4.7124V27.1228C25.7119 29.2446 23.9919 30.9646 21.8701 30.9646C19.7483 30.9646 18.0283 29.2446 18.0283 27.1228V4.71239Z" fill="url(#paint1_linear_0_1)"/>
<defs>
<linearGradient id="paint0_linear_0_1" x1="22.1903" y1="-0.410069" x2="22.1903" y2="42.4899" gradientUnits="userSpaceOnUse">
<stop stop-color="#E51C1C"/>
<stop offset="1" stop-color="#7F1010"/>
</linearGradient>
<linearGradient id="paint1_linear_0_1" x1="21.8701" y1="0.870605" x2="21.8701" y2="30.9646" gradientUnits="userSpaceOnUse">
<stop stop-color="#E51C1C"/>
<stop offset="1" stop-color="#7F1010"/>
</linearGradient>
</defs>
</svg>
