<svg width="40" height="40" viewBox="0 0 40 40" fill="none" xmlns="http://www.w3.org/2000/svg">
<path d="M26.7609 1.71675C27.9296 0.542333 29.8245 0.542336 30.9932 1.71675L38.2329 8.99167C39.4016 10.1661 39.4016 12.0702 38.2329 13.2446L13.1151 38.4845C11.9464 39.6589 10.0515 39.6589 8.88281 38.4845L1.6431 31.2096C0.474377 30.0352 0.474378 28.1311 1.6431 26.9567L26.7609 1.71675Z" fill="url(#paint0_linear_238_18)"/>
<path d="M27.7003 4.06627C28.3792 3.38413 29.4798 3.38413 30.1586 4.06627C30.8374 4.74841 30.8374 5.85438 30.1586 6.53652L7.23305 29.5736C6.55421 30.2558 5.4536 30.2557 4.77476 29.5736C4.09592 28.8915 4.09592 27.7855 4.77476 27.1034L27.7003 4.06627Z" fill="#FAFAFA"/>
<path d="M1.69347 39.522C1.07377 39.578 0.554823 39.0565 0.610555 38.4338L1.29432 30.7938C1.37012 29.9469 2.3949 29.5735 2.99327 30.1748L9.91249 37.1277C10.5109 37.729 10.1393 38.7587 9.29645 38.8349L1.69347 39.522Z" fill="url(#paint1_linear_238_18)"/>
<defs>
<linearGradient id="paint0_linear_238_18" x1="0.504216" y1="39.6291" x2="8.47516" y2="31.6968" gradientUnits="userSpaceOnUse">
<stop stop-color="#E51C1C"/>
<stop offset="1" stop-color="#7F1010"/>
</linearGradient>
<linearGradient id="paint1_linear_238_18" x1="0.504216" y1="39.6291" x2="8.47516" y2="31.6968" gradientUnits="userSpaceOnUse">
<stop stop-color="#E51C1C"/>
<stop offset="1" stop-color="#7F1010"/>
</linearGradient>
</defs>
</svg>
