<svg width="40" height="40" viewBox="0 0 40 40" fill="none" xmlns="http://www.w3.org/2000/svg">
<path d="M26.7618 1.71675C27.9306 0.542333 29.8254 0.542336 30.9942 1.71675L38.2339 8.99167C39.4026 10.1661 39.4026 12.0702 38.2339 13.2446L13.1161 38.4845C11.9474 39.6589 10.0525 39.6589 8.88379 38.4845L1.64408 31.2096C0.475354 30.0352 0.475355 28.1311 1.64408 26.9567L26.7618 1.71675Z" fill="url(#paint0_linear_247_23)"/>
<path d="M27.7013 4.06627C28.3801 3.38413 29.4807 3.38413 30.1596 4.06627C30.8384 4.74841 30.8384 5.85438 30.1596 6.53652L7.23403 29.5736C6.55519 30.2558 5.45457 30.2557 4.77573 29.5736C4.09689 28.8915 4.09689 27.7855 4.77573 27.1034L27.7013 4.06627Z" fill="#FAFAFA"/>
<path d="M1.69445 39.522C1.07475 39.578 0.555799 39.0565 0.611531 38.4338L1.2953 30.7938C1.3711 29.9469 2.39587 29.5735 2.99425 30.1748L9.91346 37.1277C10.5118 37.729 10.1403 38.7587 9.29743 38.8349L1.69445 39.522Z" fill="url(#paint1_linear_247_23)"/>
<defs>
<linearGradient id="paint0_linear_247_23" x1="0.504216" y1="39.6291" x2="8.47516" y2="31.6968" gradientUnits="userSpaceOnUse">
<stop stop-color="#E51C1C"/>
<stop offset="1" stop-color="#7F1010"/>
</linearGradient>
<linearGradient id="paint1_linear_247_23" x1="0.504216" y1="39.6291" x2="8.47516" y2="31.6968" gradientUnits="userSpaceOnUse">
<stop stop-color="#E51C1C"/>
<stop offset="1" stop-color="#7F1010"/>
</linearGradient>
</defs>
</svg>
