<svg width="43" height="42" viewBox="0 0 43 42" fill="none" xmlns="http://www.w3.org/2000/svg">
<path d="M5.47642 15.4528C2.45188 15.4528 0 17.8477 0 20.8019C0 23.7561 2.45188 26.1509 5.47642 26.1509H37.5236C40.5481 26.1509 43 23.7561 43 20.8019C43 17.8477 40.5481 15.4528 37.5236 15.4528H5.47642Z" fill="url(#paint0_linear_250_34)"/>
<path d="M26.7734 5.34906C26.7734 2.39486 24.3215 0 21.297 0C18.2724 0 15.8205 2.39486 15.8205 5.34906V36.6509C15.8205 39.6051 18.2724 42 21.297 42C24.3215 42 26.7734 39.6051 26.7734 36.6509V5.34906Z" fill="url(#paint1_linear_250_34)"/>
<defs>
<linearGradient id="paint0_linear_250_34" x1="26.7734" y1="19.6519" x2="15.7785" y2="19.836" gradientUnits="userSpaceOnUse">
<stop offset="1" stop-color="#D21111"/>
<stop stop-color="#6C0909"/>
</linearGradient>
<linearGradient id="paint1_linear_250_34" x1="26.7734" y1="19.6519" x2="15.7785" y2="19.836" gradientUnits="userSpaceOnUse">
<stop offset="1" stop-color="#D21111"/>
<stop stop-color="#6C0909"/>
</linearGradient>
</defs>
</svg>
