<svg width="35" height="28" viewBox="0 0 35 28" fill="none" xmlns="http://www.w3.org/2000/svg">
<path d="M1.27903 13.1093C2.9844 11.4018 5.74935 11.4018 7.45472 13.1093L14.8717 20.5358C16.5771 22.2433 16.5771 25.0118 14.8717 26.7193C13.1663 28.4269 10.4014 28.4269 8.696 26.7193L1.27903 19.2929C-0.426342 17.5854 -0.426344 14.8169 1.27903 13.1093Z" fill="url(#paint0_linear_253_49)"/>
<path d="M33.6279 1.37382C35.4574 3.20559 35.4574 6.17546 33.6279 8.00723L15.0885 26.5703C13.2591 28.402 10.293 28.402 8.46357 26.5703C6.63414 24.7385 6.63414 21.7686 8.46357 19.9369L27.003 1.37383C28.8324 -0.457939 31.7985 -0.457944 33.6279 1.37382Z" fill="url(#paint1_linear_253_49)"/>
<defs>
<linearGradient id="paint0_linear_253_49" x1="17.5" y1="0" x2="17.5" y2="28" gradientUnits="userSpaceOnUse">
<stop stop-color="#B61414"/>
<stop offset="1" stop-color="#500909"/>
</linearGradient>
<linearGradient id="paint1_linear_253_49" x1="17.5" y1="0" x2="17.5" y2="28" gradientUnits="userSpaceOnUse">
<stop stop-color="#B61414"/>
<stop offset="1" stop-color="#500909"/>
</linearGradient>
</defs>
</svg>
