<svg width="74" height="75" viewBox="0 0 74 75" fill="none" xmlns="http://www.w3.org/2000/svg">
<path d="M51 25C51 38.8071 39.5833 50 25.5 50C11.4167 50 0 38.8071 0 25C0 11.1929 11.4167 0 25.5 0C39.5833 0 51 11.1929 51 25ZM3.63528 25C3.63528 36.8388 13.4244 46.436 25.5 46.436C37.5756 46.436 47.3647 36.8388 47.3647 25C47.3647 13.1612 37.5756 3.564 25.5 3.564C13.4244 3.564 3.63528 13.1612 3.63528 25Z" fill="#E31D29"/>
<circle cx="24" cy="12" r="3" fill="#E31D29"/>
<circle cx="25" cy="12" r="1" fill="#E31D29"/>
<path d="M73.5421 63.8418C73.5421 69.9169 68.6172 74.8418 62.5421 74.8418C56.467 74.8418 41.5421 53.417 41.5421 47.3418C41.5421 41.2667 38.9669 43.3419 45.042 43.3419C51.1171 43.3419 73.5421 57.7667 73.5421 63.8418Z" fill="#E31D29"/>
</svg>
