<svg width="69" height="67" viewBox="0 0 69 67" fill="none" xmlns="http://www.w3.org/2000/svg">
<path d="M51 25C51 38.8071 39.5833 50 25.5 50C11.4167 50 0 38.8071 0 25C0 11.1929 11.4167 0 25.5 0C39.5833 0 51 11.1929 51 25ZM3.63528 25C3.63528 36.8388 13.4244 46.436 25.5 46.436C37.5756 46.436 47.3647 36.8388 47.3647 25C47.3647 13.1612 37.5756 3.564 25.5 3.564C13.4244 3.564 3.63528 13.1612 3.63528 25Z" fill="#E31D29"/>
<line x1="42.0757" y1="41.834" x2="66.0757" y2="64.834" stroke="#E31D29" stroke-width="6"/>
<circle cx="24" cy="12" r="3" fill="#E31D29"/>
<circle cx="25" cy="12" r="1" fill="white"/>
</svg>
