<svg width="38" height="42" viewBox="0 0 38 42" fill="none" xmlns="http://www.w3.org/2000/svg">
<path d="M16.9536 0.754471C18.1949 0.0343182 19.7269 0.0343166 20.9682 0.754469L35.4545 9.15883C36.688 9.87446 37.4472 11.1927 37.4472 12.6187V29.4611C37.4472 30.8872 36.688 32.2054 35.4545 32.921L20.9682 41.3254C19.7269 42.0455 18.1949 42.0455 16.9536 41.3254L2.46733 32.921C1.23383 32.2054 0.474609 30.8872 0.474609 29.4611V12.6187C0.474609 11.1927 1.23383 9.87446 2.46732 9.15883L16.9536 0.754471Z" fill="url(#paint0_linear_247_22)"/>
<path d="M16.9536 13.6244C18.1949 12.9043 19.7268 12.9043 20.9681 13.6244L24.3627 15.5938C25.5962 16.3094 26.3554 17.6276 26.3554 19.0537V23.0261C26.3554 24.4521 25.5962 25.7703 24.3627 26.486L20.9681 28.4553C19.7268 29.1755 18.1949 29.1755 16.9536 28.4553L13.5591 26.486C12.3256 25.7703 11.5663 24.4521 11.5663 23.0261V19.0537C11.5663 17.6276 12.3256 16.3094 13.5591 15.5938L16.9536 13.6244Z" fill="#FAFAFA"/>
<defs>
<linearGradient id="paint0_linear_247_22" x1="18.9609" y1="-0.410075" x2="18.9609" y2="42.4899" gradientUnits="userSpaceOnUse">
<stop stop-color="#CC1111"/>
<stop offset="1" stop-color="#4E0707"/>
</linearGradient>
</defs>
</svg>
