<svg width="38" height="42" viewBox="0 0 38 42" fill="none" xmlns="http://www.w3.org/2000/svg">
<path d="M16.9546 0.754471C18.1959 0.0343182 19.7279 0.0343166 20.9692 0.754469L35.4555 9.15883C36.689 9.87446 37.4482 11.1927 37.4482 12.6187V29.4611C37.4482 30.8872 36.689 32.2054 35.4555 32.921L20.9692 41.3254C19.7279 42.0455 18.1959 42.0455 16.9546 41.3254L2.4683 32.921C1.23481 32.2054 0.475586 30.8872 0.475586 29.4611V12.6187C0.475586 11.1927 1.2348 9.87446 2.4683 9.15883L16.9546 0.754471Z" fill="url(#paint0_linear_0_1)"/>
<path d="M16.9546 13.6246C18.1959 12.9044 19.7279 12.9044 20.9692 13.6246L24.3637 15.5939C25.5972 16.3096 26.3564 17.6278 26.3564 19.0538V23.0262C26.3564 24.4523 25.5972 25.7705 24.3637 26.4861L20.9692 28.4555C19.7279 29.1756 18.1959 29.1757 16.9546 28.4555L13.5601 26.4861C12.3266 25.7705 11.5674 24.4523 11.5674 23.0262V19.0538C11.5674 17.6278 12.3266 16.3096 13.5601 15.594L16.9546 13.6246Z" fill="#FAFAFA"/>
<defs>
<linearGradient id="paint0_linear_0_1" x1="18.9619" y1="-0.410075" x2="18.9619" y2="42.4899" gradientUnits="userSpaceOnUse">
<stop stop-color="#E51C1C"/>
<stop offset="1" stop-color="#7F1010"/>
</linearGradient>
</defs>
</svg>
