<svg width="291" height="143" viewBox="0 0 291 143" fill="none" xmlns="http://www.w3.org/2000/svg">
<path d="M287.74 78.2739C292.087 74.7464 292.087 67.9006 287.74 64.3731L211.208 2.27126C203.363 -4.09464 193.235 6.41236 199.316 14.6088L237.393 65.9364C239.747 69.1094 239.747 73.5376 237.393 76.7106L199.316 128.038C193.235 136.235 203.363 146.742 211.208 140.376L287.74 78.2739Z" fill="url(#paint0_linear_230_43)"/>
<path d="M3.26034 78.2739C-1.08678 74.7464 -1.08678 67.9006 3.26034 64.3731L79.7916 2.27126C87.6366 -4.09464 97.7645 6.41236 91.684 14.6088L53.6068 65.9364C51.2529 69.1094 51.2529 73.5376 53.6068 76.7106L91.684 128.038C97.7645 136.235 87.6366 146.742 79.7916 140.376L3.26034 78.2739Z" fill="url(#paint1_linear_230_43)"/>
<path d="M160.745 63C160.745 66.7546 159.678 72.6 157.544 80.536C155.411 88.3866 154.344 93.5066 154.344 95.896C154.344 98.2853 154.814 99.48 155.753 99.48C156.691 99.48 158.398 99.0533 160.872 98.2L162.025 97.688L164.329 104.088C161.427 106.307 157.801 108.269 153.449 109.976C149.182 111.683 145.299 112.536 141.801 112.536C138.302 112.536 135.528 111.555 133.48 109.592C131.518 107.629 130.536 104.813 130.536 101.144C130.536 97.3893 131.561 91.7146 133.609 84.12C135.742 76.44 136.809 71.576 136.809 69.528C136.809 66.3706 135.699 63.384 133.48 60.568L132.456 59.16L132.84 56.984C137.278 55.6186 145.897 54.936 158.697 54.936C160.062 56.472 160.745 59.16 160.745 63ZM151.145 44.952C147.305 44.952 144.275 43.928 142.057 41.88C139.923 39.832 138.857 37.2293 138.857 34.072C138.857 30.8293 140.179 28.1413 142.824 26.008C145.555 23.7893 148.84 22.68 152.68 22.68C156.52 22.68 159.507 23.576 161.641 25.368C163.774 27.16 164.84 29.6773 164.84 32.92C164.84 36.1626 163.518 38.9786 160.872 41.368C158.312 43.7573 155.07 44.952 151.145 44.952Z" fill="url(#paint2_linear_230_43)"/>
<defs>
<linearGradient id="paint0_linear_230_43" x1="145.5" y1="0.314453" x2="145.5" y2="142.333" gradientUnits="userSpaceOnUse">
<stop stop-color="white"/>
<stop offset="1" stop-color="#999999"/>
</linearGradient>
<linearGradient id="paint1_linear_230_43" x1="145.5" y1="0.314453" x2="145.5" y2="142.333" gradientUnits="userSpaceOnUse">
<stop stop-color="white"/>
<stop offset="1" stop-color="#999999"/>
</linearGradient>
<linearGradient id="paint2_linear_230_43" x1="145.5" y1="0.314453" x2="145.5" y2="142.333" gradientUnits="userSpaceOnUse">
<stop stop-color="white"/>
<stop offset="1" stop-color="#999999"/>
</linearGradient>
</defs>
</svg>
