<svg width="53" height="50" viewBox="0 0 53 50" fill="none" xmlns="http://www.w3.org/2000/svg">
<path d="M5 49.5C2.23857 49.5 -0.0476362 47.242 0.470305 44.5296C0.807809 42.7621 1.32527 41.0293 2.01719 39.3589C3.34894 36.1438 5.30092 33.2224 7.76168 30.7617C10.2224 28.3009 13.1438 26.3489 16.3589 25.0172C19.574 23.6854 23.02 23 26.5 23C29.98 23 33.426 23.6854 36.6411 25.0172C39.8563 26.349 42.7776 28.3009 45.2383 30.7617C47.6991 33.2224 49.6511 36.1438 50.9828 39.3589C51.6747 41.0294 52.1922 42.7621 52.5297 44.5296C53.0476 47.242 50.7614 49.5 48 49.5L5 49.5Z" fill="url(#paint0_linear_168_2)"/>
<path d="M41 15C41 23.2843 34.2843 30 26 30C17.7157 30 11 23.2843 11 15C11 6.71573 17.7157 0 26 0C34.2843 0 41 6.71573 41 15Z" fill="url(#paint1_linear_168_2)"/>
<defs>
<linearGradient id="paint0_linear_168_2" x1="26" y1="0" x2="26" y2="30" gradientUnits="userSpaceOnUse">
<stop stop-color="#E51C1C"/>
<stop offset="1" stop-color="#7F1010"/>
</linearGradient>
<linearGradient id="paint1_linear_168_2" x1="26" y1="0" x2="26" y2="30" gradientUnits="userSpaceOnUse">
<stop stop-color="#E51C1C"/>
<stop offset="1" stop-color="#7F1010"/>
</linearGradient>
</defs>
</svg>
