<svg width="120" height="92" viewBox="0 0 120 92" fill="none" xmlns="http://www.w3.org/2000/svg">
<rect x="2.64587" y="2.03141" width="114.708" height="87.3194" rx="23" fill="#FAFAFA" stroke="#3FA526" stroke-width="4"/>
<rect width="37.2213" height="9.76191" rx="4.88096" transform="matrix(0.787845 -0.615873 0.559621 0.828748 73.2124 46.9236)" fill="#3FA526"/>
<path d="M75.3998 45.1522L81.1711 53.0919L71.289 54.2094L75.3998 45.1522Z" fill="#3FA526"/>
<line y1="-1.5" x2="28.0456" y2="-1.5" transform="matrix(0.795347 -0.606155 0.549874 0.835248 78.9886 47.507)" stroke="white" stroke-width="3"/>
<path d="M17.4096 53.8008C17.2377 53.6914 17.1088 53.5234 17.0229 53.2969C16.9448 53.0625 16.8862 52.8203 16.8471 52.5703C16.8159 52.3125 16.8002 52.0742 16.8002 51.8555V51.3633C16.8002 51.2773 16.8041 51.1055 16.812 50.8477C16.8198 50.582 16.8315 50.2773 16.8471 49.9336C16.8627 49.582 16.8784 49.2109 16.894 48.8203C16.9096 48.4219 16.9252 48.0508 16.9409 47.707C16.9565 47.3555 16.9682 47.0508 16.976 46.793C16.9916 46.5352 16.9995 46.3633 16.9995 46.2773C16.9995 46.1602 16.9995 45.957 16.9995 45.668C17.0073 45.3789 17.0112 45.0742 17.0112 44.7539C17.0112 44.4258 17.0073 44.1172 16.9995 43.8281C16.9995 43.5391 16.9995 43.3359 16.9995 43.2188C17.1166 43.1328 17.2182 43.0742 17.3041 43.043C17.3823 43.0117 17.4526 43.0078 17.5151 43.0312C17.5776 43.0469 17.6088 43.1094 17.6088 43.2188V52.7812C17.6088 52.8359 17.6245 52.9023 17.6557 52.9805C17.6948 53.0508 17.7416 53.1133 17.7963 53.168C17.851 53.2227 17.9135 53.2578 17.9838 53.2734C18.062 53.2812 18.1401 53.25 18.2182 53.1797L19.6362 51.9727C19.6752 52.1523 19.6713 52.3398 19.6245 52.5352C19.5776 52.7305 19.4995 52.9141 19.3901 53.0859C19.2885 53.2578 19.1596 53.4141 19.0034 53.5547C18.8471 53.6953 18.6791 53.8047 18.4995 53.8828C18.3198 53.9531 18.1362 53.9883 17.9487 53.9883C17.7612 53.9805 17.5815 53.918 17.4096 53.8008ZM22.691 53.8008C22.3629 53.543 22.1012 53.2422 21.9059 52.8984C21.7184 52.5469 21.5738 52.1719 21.4723 51.7734C21.4254 51.8125 21.3551 51.8555 21.2613 51.9023C21.1676 51.9492 21.0699 51.9883 20.9684 52.0195C20.8746 52.0508 20.7809 52.0742 20.6871 52.0898C20.5934 52.0977 20.523 52.0859 20.4762 52.0547C20.4371 52.0234 20.4254 51.9727 20.441 51.9023C20.4645 51.8242 20.5387 51.7109 20.6637 51.5625C20.6793 51.5391 20.7262 51.4883 20.8043 51.4102C20.8902 51.332 20.9801 51.25 21.0738 51.1641C21.1676 51.0703 21.2535 50.9844 21.3316 50.9062C21.4098 50.8203 21.4566 50.7656 21.4723 50.7422C21.5582 50.5469 21.609 50.332 21.6246 50.0977C21.648 49.8633 21.6598 49.6211 21.6598 49.3711C21.6676 49.1133 21.6832 48.8594 21.7066 48.6094C21.7301 48.3594 21.7887 48.125 21.8824 47.9062C21.9371 47.7812 22.0387 47.6289 22.1871 47.4492C22.3434 47.2617 22.5152 47.082 22.7027 46.9102C22.898 46.7383 23.0934 46.5859 23.2887 46.4531C23.4918 46.3125 23.6637 46.2266 23.8043 46.1953C23.9527 46.1641 24.0582 46.1992 24.1207 46.3008C24.191 46.4023 24.191 46.5977 24.1207 46.8867C24.0348 47.2305 23.902 47.5664 23.7223 47.8945C23.5504 48.2148 23.3707 48.5352 23.1832 48.8555C22.9957 49.168 22.816 49.4805 22.6441 49.793C22.4801 50.1055 22.3629 50.4219 22.2926 50.7422C22.2535 50.9141 22.234 51.125 22.234 51.375C22.234 51.6172 22.2613 51.8594 22.316 52.1016C22.3707 52.3438 22.4605 52.5664 22.5855 52.7695C22.7105 52.9648 22.8824 53.1016 23.1012 53.1797C23.3512 53.2734 23.6012 53.2969 23.8512 53.25C24.1012 53.2031 24.3434 53.1133 24.5777 52.9805C24.8199 52.8477 25.0504 52.6836 25.2691 52.4883C25.4879 52.2852 25.691 52.0781 25.8785 51.8672C26.066 51.6562 26.234 51.4531 26.3824 51.2578C26.5309 51.0547 26.6559 50.8828 26.7574 50.7422L26.9566 50.9531C27.0113 51 26.9762 51.1328 26.8512 51.3516C26.734 51.5703 26.5582 51.8203 26.3238 52.1016C26.0973 52.375 25.8277 52.6562 25.5152 52.9453C25.2027 53.2344 24.8785 53.4766 24.5426 53.6719C24.2145 53.8672 23.8863 53.9883 23.5582 54.0352C23.2379 54.082 22.9488 54.0039 22.691 53.8008ZM22.2926 48.7031C22.2848 48.7422 22.277 48.8125 22.2691 48.9141C22.2691 49.0078 22.2691 49.1094 22.2691 49.2188C22.2691 49.3281 22.2691 49.4297 22.2691 49.5234C22.277 49.6172 22.2848 49.6836 22.2926 49.7227C22.5426 49.293 22.777 48.8359 22.9957 48.3516C23.2145 47.8672 23.3863 47.3789 23.5113 46.8867C23.3316 46.9492 23.1676 47.0469 23.0191 47.1797C22.8785 47.3047 22.7574 47.4531 22.6559 47.625C22.5543 47.7891 22.4723 47.9648 22.4098 48.1523C22.3551 48.3398 22.316 48.5234 22.2926 48.7031ZM30.5857 53.1797C30.4138 52.8906 30.281 52.5664 30.1873 52.207C30.0935 51.8398 30.0271 51.4648 29.988 51.082C29.949 50.6992 29.9295 50.3203 29.9295 49.9453C29.9373 49.5703 29.949 49.2266 29.9646 48.9141C29.8552 48.8828 29.7302 48.8906 29.5896 48.9375C29.449 48.9844 29.3005 49.0469 29.1443 49.125C28.988 49.1953 28.8279 49.2734 28.6638 49.3594C28.4998 49.4453 28.3474 49.5078 28.2068 49.5469C28.0662 49.5859 27.9373 49.5938 27.8201 49.5703C27.7029 49.5469 27.6091 49.4648 27.5388 49.3242C27.4685 49.1914 27.4724 49.0859 27.5505 49.0078C27.6365 48.9297 27.7576 48.8711 27.9138 48.832C28.0779 48.7852 28.2654 48.7539 28.4763 48.7383C28.6873 48.7148 28.8865 48.6875 29.074 48.6562C29.2615 48.625 29.4216 48.5859 29.5545 48.5391C29.6873 48.4844 29.7576 48.4062 29.7654 48.3047L30.1755 43.8398C30.1834 43.7695 30.2185 43.7148 30.281 43.6758C30.3513 43.6367 30.4216 43.6172 30.492 43.6172C30.5701 43.6172 30.6365 43.6367 30.6912 43.6758C30.7537 43.707 30.7849 43.7617 30.7849 43.8398V47.6953C30.8943 47.7188 30.9998 47.7188 31.1013 47.6953C31.2029 47.6641 31.3045 47.6289 31.406 47.5898C31.5076 47.5508 31.6052 47.5195 31.699 47.4961C31.8005 47.4727 31.906 47.4727 32.0154 47.4961C32.0623 47.582 32.0545 47.6641 31.992 47.7422C31.9295 47.8125 31.867 47.8672 31.8045 47.9062L31.5935 48.0352C31.4998 48.0898 31.3982 48.1523 31.2888 48.2227C31.1873 48.2852 31.0857 48.3438 30.9841 48.3984C30.8904 48.4531 30.824 48.4883 30.7849 48.5039C30.7771 48.6133 30.7693 48.8047 30.7615 49.0781C30.7615 49.3438 30.7615 49.6289 30.7615 49.9336C30.7615 50.2383 30.7615 50.5273 30.7615 50.8008C30.7693 51.0664 30.7771 51.2539 30.7849 51.3633C30.8162 51.7305 30.8865 52.0664 30.9959 52.3711C31.1052 52.6758 31.2537 52.9141 31.4412 53.0859C31.6287 53.2578 31.8513 53.3438 32.1091 53.3438C32.3748 53.3438 32.6834 53.2227 33.0349 52.9805C33.0896 53.1602 33.0857 53.3203 33.0232 53.4609C32.9607 53.6016 32.8591 53.7148 32.7185 53.8008C32.5779 53.8789 32.4099 53.9297 32.2146 53.9531C32.0193 53.9766 31.8201 53.9648 31.617 53.918C31.4216 53.8711 31.2302 53.7891 31.0427 53.6719C30.8552 53.5469 30.7029 53.3828 30.5857 53.1797ZM40.6329 53.8008C40.4766 53.4727 40.3907 53.1406 40.3751 52.8047C40.3673 52.4688 40.3868 52.125 40.4337 51.7734C40.4415 51.6641 40.461 51.5 40.4923 51.2812C40.5235 51.0625 40.5587 50.8203 40.5977 50.5547C40.6368 50.2891 40.6798 50.0078 40.7266 49.7109C40.7735 49.4141 40.8165 49.1328 40.8555 48.8672C40.8946 48.6016 40.9298 48.3672 40.961 48.1641C41.0001 47.9531 41.0274 47.7969 41.043 47.6953C41.1055 47.3672 41.172 47.0898 41.2423 46.8633C41.3204 46.6289 41.422 46.4492 41.547 46.3242C41.6798 46.1992 41.8477 46.1328 42.0509 46.125C42.2618 46.1172 42.5313 46.168 42.8595 46.2773C42.8985 46.2852 42.9415 46.3164 42.9884 46.3711C43.0352 46.418 43.0626 46.4531 43.0704 46.4766C43.086 46.5781 43.1134 46.7344 43.1524 46.9453C43.1993 47.1562 43.2501 47.3984 43.3048 47.6719C43.3595 47.9375 43.4141 48.2188 43.4688 48.5156C43.5313 48.8047 43.5899 49.0859 43.6446 49.3594C43.6993 49.625 43.7462 49.8633 43.7852 50.0742C43.8321 50.2852 43.8673 50.4414 43.8907 50.543C44.0079 51.0977 44.1524 51.4844 44.3243 51.7031C44.4962 51.9141 44.6798 52.0234 44.8751 52.0312C45.0704 52.0391 45.2696 51.9766 45.4727 51.8438C45.6837 51.7031 45.8907 51.5586 46.0938 51.4102C46.297 51.2539 46.4884 51.1211 46.668 51.0117C46.8477 50.9023 47.004 50.8828 47.1368 50.9531C47.1368 51.1016 47.1016 51.2461 47.0313 51.3867C46.961 51.5273 46.8751 51.6602 46.7735 51.7852C46.6798 51.9023 46.5743 52.0117 46.4571 52.1133C46.3399 52.2148 46.2305 52.3008 46.129 52.3711C45.6915 52.6602 45.3243 52.8125 45.0274 52.8281C44.7384 52.8438 44.4923 52.7773 44.2891 52.6289C44.086 52.4805 43.922 52.2773 43.797 52.0195C43.672 51.7617 43.5587 51.5 43.4571 51.2344C43.3634 50.9688 43.2696 50.7344 43.1759 50.5312C43.0899 50.3203 42.9845 50.1875 42.8595 50.1328C42.836 50.2344 42.7852 50.4102 42.7071 50.6602C42.6368 50.9102 42.5587 51.1758 42.4727 51.457C42.3868 51.7383 42.3048 52.0039 42.2266 52.2539C42.1485 52.5039 42.0938 52.6797 42.0626 52.7812C42.047 52.8203 42.0118 52.8945 41.9571 53.0039C41.9102 53.1133 41.8477 53.2344 41.7696 53.3672C41.6915 53.4922 41.6016 53.6172 41.5001 53.7422C41.4063 53.8594 41.3087 53.9492 41.2071 54.0117C41.1055 54.082 41.004 54.1055 40.9024 54.082C40.8009 54.0586 40.711 53.9648 40.6329 53.8008ZM41.2423 50.3438C41.2266 50.4375 41.2149 50.6094 41.2071 50.8594C41.2071 51.1094 41.2071 51.375 41.2071 51.6562C41.2071 51.9375 41.2071 52.2031 41.2071 52.4531C41.2149 52.7031 41.2266 52.8789 41.2423 52.9805C41.5157 52.5664 41.7618 52.0859 41.9805 51.5391C42.1993 50.9844 42.3634 50.4141 42.4727 49.8281C42.5899 49.2344 42.6368 48.6484 42.6134 48.0703C42.5899 47.4844 42.4727 46.9531 42.2618 46.4766C42.129 46.7188 42.004 47.0234 41.8868 47.3906C41.7696 47.7578 41.668 48.1328 41.5821 48.5156C41.4962 48.8906 41.422 49.2461 41.3595 49.582C41.3048 49.9102 41.2657 50.1641 41.2423 50.3438ZM47.508 52.0312C47.4612 51.9375 47.4885 51.8516 47.5901 51.7734C47.6916 51.6875 47.8166 51.6172 47.9651 51.5625C48.1135 51.5078 48.262 51.4688 48.4104 51.4453C48.5666 51.4141 48.6721 51.4023 48.7268 51.4102L56.262 50.3906H57.6682C57.7229 50.4766 57.7463 50.5586 57.7385 50.6367C57.7307 50.707 57.7034 50.7734 57.6565 50.8359C57.6096 50.8906 57.551 50.9336 57.4807 50.9648C57.4182 50.9961 57.3518 51.0117 57.2815 51.0117H54.6213L48.1174 52.2305C47.9846 52.2539 47.8635 52.2617 47.7541 52.2539C47.6526 52.2383 47.5705 52.1641 47.508 52.0312ZM47.3088 49.5938C47.3245 49.5703 47.3557 49.5312 47.4026 49.4766C47.4573 49.4219 47.4924 49.3906 47.508 49.3828C48.1174 49.1719 48.7776 48.9805 49.4885 48.8086C50.1995 48.6367 50.9221 48.4961 51.6565 48.3867C52.3909 48.2695 53.1174 48.1914 53.8362 48.1523C54.5549 48.1055 55.2268 48.1094 55.8518 48.1641C55.883 48.2656 55.887 48.3828 55.8635 48.5156C55.8401 48.6484 55.7659 48.7344 55.6409 48.7734C55.0393 48.6953 54.3948 48.6797 53.7073 48.7266C53.0276 48.7656 52.344 48.8398 51.6565 48.9492C50.9768 49.0586 50.3127 49.1914 49.6643 49.3477C49.0237 49.5039 48.4416 49.6523 47.9182 49.793H47.3088C47.301 49.7773 47.2971 49.7461 47.2971 49.6992C47.2971 49.6445 47.301 49.6094 47.3088 49.5938ZM59.8441 53.8008C59.6254 53.7461 59.4535 53.6328 59.3285 53.4609C59.2035 53.2891 59.1098 53.082 59.0473 52.8398C58.9926 52.5977 58.9613 52.3398 58.9535 52.0664C58.9535 51.7852 58.9652 51.5117 58.9887 51.2461C59.0199 50.9727 59.059 50.7227 59.1059 50.4961C59.1527 50.2617 59.1957 50.0742 59.2348 49.9336C59.2504 49.8633 59.2895 49.7266 59.352 49.5234C59.4223 49.3125 59.5004 49.0664 59.5863 48.7852C59.6723 48.5039 59.766 48.2031 59.8676 47.8828C59.977 47.5547 60.0785 47.2383 60.1723 46.9336C60.2738 46.6211 60.3676 46.3359 60.4535 46.0781C60.5395 45.8203 60.6098 45.6133 60.6645 45.457C60.6801 45.4023 60.6996 45.3398 60.723 45.2695C60.7543 45.1914 60.7934 45.125 60.8402 45.0703C60.8871 45.0156 60.9418 44.9844 61.0043 44.9766C61.0746 44.9609 61.1605 44.9844 61.2621 45.0469V45.6562L59.8441 50.3438V52.5703C59.8441 52.6484 59.8871 52.7383 59.973 52.8398C60.059 52.9414 60.1527 53.0273 60.2543 53.0977C60.3559 53.1602 60.4496 53.1914 60.5355 53.1914C60.6215 53.1836 60.6645 53.1133 60.6645 52.9805C60.6879 52.8789 60.7348 52.7031 60.8051 52.4531C60.8832 52.2031 60.9652 51.9375 61.0512 51.6562C61.1371 51.375 61.2191 51.1094 61.2973 50.8594C61.3754 50.6094 61.4301 50.4375 61.4613 50.3438C61.477 50.2891 61.5355 50.1836 61.6371 50.0273C61.7465 49.8711 61.8715 49.7031 62.0121 49.5234C62.1605 49.3359 62.3207 49.1562 62.4926 48.9844C62.6723 48.8125 62.8402 48.6836 62.9965 48.5977C63.1605 48.5039 63.3051 48.4766 63.4301 48.5156C63.5551 48.5469 63.6488 48.6797 63.7113 48.9141C63.766 49.2969 63.7699 49.6992 63.723 50.1211C63.684 50.5352 63.5941 50.9453 63.4535 51.3516C63.3129 51.75 63.1293 52.1211 62.9027 52.4648C62.684 52.8086 62.4223 53.1016 62.1176 53.3438C61.8129 53.5781 61.4691 53.7422 61.0863 53.8359C60.7035 53.9219 60.2895 53.9102 59.8441 53.8008ZM61.4613 52.1602C61.4535 52.1992 61.4457 52.2578 61.4379 52.3359C61.4379 52.4141 61.4379 52.4961 61.4379 52.582C61.4379 52.668 61.4379 52.75 61.4379 52.8281C61.4457 52.8984 61.4535 52.9492 61.4613 52.9805C61.7348 52.8867 61.9965 52.7031 62.2465 52.4297C62.4965 52.1562 62.7074 51.8516 62.8793 51.5156C63.059 51.1719 63.1879 50.8242 63.266 50.4727C63.3441 50.1133 63.3559 49.7969 63.3012 49.5234H62.6918C62.684 49.5234 62.6527 49.5625 62.598 49.6406C62.5512 49.7188 62.4926 49.8125 62.4223 49.9219C62.3598 50.0234 62.2934 50.1328 62.223 50.25C62.1605 50.3672 62.1137 50.4648 62.0824 50.543C62.0434 50.6133 61.9926 50.7305 61.9301 50.8945C61.8676 51.0508 61.8051 51.2148 61.7426 51.3867C61.6801 51.5586 61.6215 51.7188 61.5668 51.8672C61.5121 52.0156 61.477 52.1133 61.4613 52.1602ZM63.7427 57.457C64.1724 56.9883 64.5591 56.5195 64.9029 56.0508C65.2466 55.582 65.5279 55.0898 65.7466 54.5742C65.9732 54.0664 66.1255 53.5312 66.2037 52.9688C66.2818 52.4062 66.2701 51.8008 66.1685 51.1523C66.2154 51.0195 66.3013 50.9453 66.4263 50.9297C66.5591 50.9062 66.6802 50.9141 66.7896 50.9531C66.938 51.3438 67.0123 51.7383 67.0123 52.1367C67.0201 52.5273 66.9732 52.9141 66.8716 53.2969C66.7779 53.6797 66.6412 54.0547 66.4615 54.4219C66.2818 54.7969 66.0826 55.1602 65.8638 55.5117C65.6451 55.8633 65.4185 56.1992 65.1841 56.5195C64.9576 56.8477 64.7466 57.1602 64.5513 57.457C64.4498 57.5898 64.317 57.6562 64.1529 57.6562C63.981 57.6562 63.8443 57.5898 63.7427 57.457ZM65.3716 48.7031C65.4185 48.5547 65.5084 48.4375 65.6412 48.3516C65.774 48.2578 65.9185 48.1914 66.0748 48.1523C66.2388 48.1055 66.4029 48.082 66.567 48.082C66.731 48.0742 66.8716 48.0781 66.9888 48.0938C67.067 48.2969 67.0591 48.4961 66.9654 48.6914C66.8795 48.8867 66.7466 49.0586 66.567 49.207C66.3873 49.3477 66.1841 49.4531 65.9576 49.5234C65.7388 49.5859 65.5435 49.5859 65.3716 49.5234C65.356 49.4922 65.3443 49.4414 65.3365 49.3711C65.3365 49.293 65.3365 49.2109 65.3365 49.125C65.3365 49.0312 65.3365 48.9453 65.3365 48.8672C65.3443 48.7891 65.356 48.7344 65.3716 48.7031ZM66.1685 48.6094C66.1216 48.6094 66.0982 48.6445 66.0982 48.7148C66.0982 48.7852 66.1216 48.8203 66.1685 48.8203C66.231 48.8203 66.2623 48.7852 66.2623 48.7148C66.2623 48.6445 66.231 48.6094 66.1685 48.6094Z" fill="#3FA526"/>
</svg>
