<svg width="1512" height="982" viewBox="0 0 1512 982" fill="none" xmlns="http://www.w3.org/2000/svg">
<path d="M0 0V1513" stroke="#636363" stroke-opacity="0.07"/>
<path d="M10.1445 0V1513" stroke="#636363" stroke-opacity="0.07"/>
<path d="M20.2949 0V1513" stroke="#636363" stroke-opacity="0.07"/>
<path d="M30.4375 0V1513" stroke="#636363" stroke-opacity="0.07"/>
<path d="M40.5918 0V1513" stroke="#636363" stroke-opacity="0.07"/>
<path d="M50.7344 0V1513" stroke="#636363" stroke-opacity="0.07"/>
<path d="M60.8867 0V1513" stroke="#636363" stroke-opacity="0.07"/>
<path d="M71.0293 0V1513" stroke="#636363" stroke-opacity="0.07"/>
<path d="M81.1816 0V1513" stroke="#636363" stroke-opacity="0.07"/>
<path d="M91.3242 0V1513" stroke="#636363" stroke-opacity="0.07"/>
<path d="M101.477 0V1513" stroke="#636363" stroke-opacity="0.07"/>
<path d="M111.621 0V1513" stroke="#636363" stroke-opacity="0.07"/>
<path d="M121.771 0V1513" stroke="#636363" stroke-opacity="0.07"/>
<path d="M131.916 0V1513" stroke="#636363" stroke-opacity="0.07"/>
<path d="M142.066 0V1513" stroke="#636363" stroke-opacity="0.07"/>
<path d="M152.211 0V1513" stroke="#636363" stroke-opacity="0.07"/>
<path d="M162.363 0V1513" stroke="#636363" stroke-opacity="0.07"/>
<path d="M172.506 0V1513" stroke="#636363" stroke-opacity="0.07"/>
<path d="M182.658 0V1513" stroke="#636363" stroke-opacity="0.07"/>
<path d="M192.805 0V1513" stroke="#636363" stroke-opacity="0.07"/>
<path d="M202.953 0V1513" stroke="#636363" stroke-opacity="0.07"/>
<path d="M213.096 0V1513" stroke="#636363" stroke-opacity="0.07"/>
<path d="M223.248 0V1513" stroke="#636363" stroke-opacity="0.07"/>
<path d="M233.393 0V1513" stroke="#636363" stroke-opacity="0.07"/>
<path d="M243.545 0V1513" stroke="#636363" stroke-opacity="0.07"/>
<path d="M253.688 0V1513" stroke="#636363" stroke-opacity="0.07"/>
<path d="M263.84 0V1513" stroke="#636363" stroke-opacity="0.07"/>
<path d="M273.984 0V1513" stroke="#636363" stroke-opacity="0.07"/>
<path d="M284.135 0V1513" stroke="#636363" stroke-opacity="0.07"/>
<path d="M294.277 0V1513" stroke="#636363" stroke-opacity="0.07"/>
<path d="M304.43 0V1513" stroke="#636363" stroke-opacity="0.07"/>
<path d="M314.576 0V1513" stroke="#636363" stroke-opacity="0.07"/>
<path d="M324.725 0V1513" stroke="#636363" stroke-opacity="0.07"/>
<path d="M334.869 0V1513" stroke="#636363" stroke-opacity="0.07"/>
<path d="M345.02 0V1513" stroke="#636363" stroke-opacity="0.07"/>
<path d="M355.166 0V1513" stroke="#636363" stroke-opacity="0.07"/>
<path d="M365.316 0V1513" stroke="#636363" stroke-opacity="0.07"/>
<path d="M375.459 0V1513" stroke="#636363" stroke-opacity="0.07"/>
<path d="M385.611 0V1513" stroke="#636363" stroke-opacity="0.07"/>
<path d="M395.756 0V1513" stroke="#636363" stroke-opacity="0.07"/>
<path d="M405.906 0V1513" stroke="#636363" stroke-opacity="0.07"/>
<path d="M416.049 0V1513" stroke="#636363" stroke-opacity="0.07"/>
<path d="M426.203 0V1513" stroke="#636363" stroke-opacity="0.07"/>
<path d="M436.348 0V1513" stroke="#636363" stroke-opacity="0.07"/>
<path d="M446.496 0V1513" stroke="#636363" stroke-opacity="0.07"/>
<path d="M456.641 0V1513" stroke="#636363" stroke-opacity="0.07"/>
<path d="M466.791 0V1513" stroke="#636363" stroke-opacity="0.07"/>
<path d="M476.938 0V1513" stroke="#636363" stroke-opacity="0.07"/>
<path d="M487.088 0V1513" stroke="#636363" stroke-opacity="0.07"/>
<path d="M497.232 0V1513" stroke="#636363" stroke-opacity="0.07"/>
<path d="M507.383 0V1513" stroke="#636363" stroke-opacity="0.07"/>
<path d="M517.529 0V1513" stroke="#636363" stroke-opacity="0.07"/>
<path d="M527.678 0V1513" stroke="#636363" stroke-opacity="0.07"/>
<path d="M537.82 0V1513" stroke="#636363" stroke-opacity="0.07"/>
<path d="M547.975 0V1513" stroke="#636363" stroke-opacity="0.07"/>
<path d="M558.119 0V1513" stroke="#636363" stroke-opacity="0.07"/>
<path d="M568.27 0V1513" stroke="#636363" stroke-opacity="0.07"/>
<path d="M578.412 0V1513" stroke="#636363" stroke-opacity="0.07"/>
<path d="M588.564 0V1513" stroke="#636363" stroke-opacity="0.07"/>
<path d="M598.709 0V1513" stroke="#636363" stroke-opacity="0.07"/>
<path d="M608.859 0V1513" stroke="#636363" stroke-opacity="0.07"/>
<path d="M619.004 0V1513" stroke="#636363" stroke-opacity="0.07"/>
<path d="M629.154 0V1513" stroke="#636363" stroke-opacity="0.07"/>
<path d="M639.301 0V1513" stroke="#636363" stroke-opacity="0.07"/>
<path d="M649.449 0V1513" stroke="#636363" stroke-opacity="0.07"/>
<path d="M659.594 0V1513" stroke="#636363" stroke-opacity="0.07"/>
<path d="M669.746 0V1513" stroke="#636363" stroke-opacity="0.07"/>
<path d="M679.893 0V1513" stroke="#636363" stroke-opacity="0.07"/>
<path d="M690.043 0V1513" stroke="#636363" stroke-opacity="0.07"/>
<path d="M700.186 0V1513" stroke="#636363" stroke-opacity="0.07"/>
<path d="M710.336 0V1513" stroke="#636363" stroke-opacity="0.07"/>
<path d="M720.482 0V1513" stroke="#636363" stroke-opacity="0.07"/>
<path d="M730.635 0V1513" stroke="#636363" stroke-opacity="0.07"/>
<path d="M740.775 0V1513" stroke="#636363" stroke-opacity="0.07"/>
<path d="M750.928 0V1513" stroke="#636363" stroke-opacity="0.07"/>
<path d="M761.072 0V1513" stroke="#636363" stroke-opacity="0.07"/>
<path d="M771.225 0V1513" stroke="#636363" stroke-opacity="0.07"/>
<path d="M781.365 0V1513" stroke="#636363" stroke-opacity="0.07"/>
<path d="M791.518 0V1513" stroke="#636363" stroke-opacity="0.07"/>
<path d="M801.664 0V1513" stroke="#636363" stroke-opacity="0.07"/>
<path d="M811.814 0V1513" stroke="#636363" stroke-opacity="0.07"/>
<path d="M821.957 0V1513" stroke="#636363" stroke-opacity="0.07"/>
<path d="M832.107 0V1513" stroke="#636363" stroke-opacity="0.07"/>
<path d="M842.254 0V1513" stroke="#636363" stroke-opacity="0.07"/>
<path d="M852.406 0V1513" stroke="#636363" stroke-opacity="0.07"/>
<path d="M862.551 0V1513" stroke="#636363" stroke-opacity="0.07"/>
<path d="M872.699 0V1513" stroke="#636363" stroke-opacity="0.07"/>
<path d="M882.846 0V1513" stroke="#636363" stroke-opacity="0.07"/>
<path d="M892.996 0V1513" stroke="#636363" stroke-opacity="0.07"/>
<path d="M903.141 0V1513" stroke="#636363" stroke-opacity="0.07"/>
<path d="M913.291 0V1513" stroke="#636363" stroke-opacity="0.07"/>
<path d="M923.436 0V1513" stroke="#636363" stroke-opacity="0.07"/>
<path d="M933.588 0V1513" stroke="#636363" stroke-opacity="0.07"/>
<path d="M943.73 0V1513" stroke="#636363" stroke-opacity="0.07"/>
<path d="M953.881 0V1513" stroke="#636363" stroke-opacity="0.07"/>
<path d="M964.025 0V1513" stroke="#636363" stroke-opacity="0.07"/>
<path d="M974.17 0V1513" stroke="#636363" stroke-opacity="0.07"/>
<path d="M984.322 0V1513" stroke="#636363" stroke-opacity="0.07"/>
<path d="M994.465 0V1513" stroke="#636363" stroke-opacity="0.07"/>
<path d="M1004.62 0V1513" stroke="#636363" stroke-opacity="0.07"/>
<path d="M1014.76 0V1513" stroke="#636363" stroke-opacity="0.07"/>
<path d="M1024.91 0V1513" stroke="#636363" stroke-opacity="0.07"/>
<path d="M1035.05 0V1513" stroke="#636363" stroke-opacity="0.07"/>
<path d="M1045.21 0V1513" stroke="#636363" stroke-opacity="0.07"/>
<path d="M1055.35 0V1513" stroke="#636363" stroke-opacity="0.07"/>
<path d="M1065.5 0V1513" stroke="#636363" stroke-opacity="0.07"/>
<path d="M1075.65 0V1513" stroke="#636363" stroke-opacity="0.07"/>
<path d="M1085.8 0V1513" stroke="#636363" stroke-opacity="0.07"/>
<path d="M1095.94 0V1513" stroke="#636363" stroke-opacity="0.07"/>
<path d="M1106.09 0V1513" stroke="#636363" stroke-opacity="0.07"/>
<path d="M1116.24 0V1513" stroke="#636363" stroke-opacity="0.07"/>
<path d="M1126.39 0V1513" stroke="#636363" stroke-opacity="0.07"/>
<path d="M1136.53 0V1513" stroke="#636363" stroke-opacity="0.07"/>
<path d="M1146.68 0V1513" stroke="#636363" stroke-opacity="0.07"/>
<path d="M1156.83 0V1513" stroke="#636363" stroke-opacity="0.07"/>
<path d="M1166.98 0V1513" stroke="#636363" stroke-opacity="0.07"/>
<path d="M1177.12 0V1513" stroke="#636363" stroke-opacity="0.07"/>
<path d="M1187.28 0V1513" stroke="#636363" stroke-opacity="0.07"/>
<path d="M1197.42 0V1513" stroke="#636363" stroke-opacity="0.07"/>
<path d="M1207.57 0V1513" stroke="#636363" stroke-opacity="0.07"/>
<path d="M1217.71 0V1513" stroke="#636363" stroke-opacity="0.07"/>
<path d="M1227.87 0V1513" stroke="#636363" stroke-opacity="0.07"/>
<path d="M1238.01 0V1513" stroke="#636363" stroke-opacity="0.07"/>
<path d="M1248.16 0V1513" stroke="#636363" stroke-opacity="0.07"/>
<path d="M1258.3 0V1513" stroke="#636363" stroke-opacity="0.07"/>
<path d="M1268.46 0V1513" stroke="#636363" stroke-opacity="0.07"/>
<path d="M1278.6 0V1513" stroke="#636363" stroke-opacity="0.07"/>
<path d="M1288.75 0V1513" stroke="#636363" stroke-opacity="0.07"/>
<path d="M1298.89 0V1513" stroke="#636363" stroke-opacity="0.07"/>
<path d="M1309.05 0V1513" stroke="#636363" stroke-opacity="0.07"/>
<path d="M1319.19 0V1513" stroke="#636363" stroke-opacity="0.07"/>
<path d="M1329.34 0V1513" stroke="#636363" stroke-opacity="0.07"/>
<path d="M1339.49 0V1513" stroke="#636363" stroke-opacity="0.07"/>
<path d="M1349.64 0V1513" stroke="#636363" stroke-opacity="0.07"/>
<path d="M1359.78 0V1513" stroke="#636363" stroke-opacity="0.07"/>
<path d="M1369.93 0V1513" stroke="#636363" stroke-opacity="0.07"/>
<path d="M1380.08 0V1513" stroke="#636363" stroke-opacity="0.07"/>
<path d="M1390.23 0V1513" stroke="#636363" stroke-opacity="0.07"/>
<path d="M1400.37 0V1513" stroke="#636363" stroke-opacity="0.07"/>
<path d="M1410.52 0V1513" stroke="#636363" stroke-opacity="0.07"/>
<path d="M1420.67 0V1513" stroke="#636363" stroke-opacity="0.07"/>
<path d="M1430.82 0V1513" stroke="#636363" stroke-opacity="0.07"/>
<path d="M1440.96 0V1513" stroke="#636363" stroke-opacity="0.07"/>
<path d="M1451.11 0V1513" stroke="#636363" stroke-opacity="0.07"/>
<path d="M1461.26 0V1513" stroke="#636363" stroke-opacity="0.07"/>
<path d="M1471.41 0V1513" stroke="#636363" stroke-opacity="0.07"/>
<path d="M1481.55 0V1513" stroke="#636363" stroke-opacity="0.07"/>
<path d="M1491.7 0V1513" stroke="#636363" stroke-opacity="0.07"/>
<path d="M1501.85 0V1513" stroke="#636363" stroke-opacity="0.07"/>
<path d="M1512 0V1513" stroke="#636363" stroke-opacity="0.07"/>
<path d="M0 974.821H1512" stroke="#636363" stroke-opacity="0.07"/>
<path d="M0 964.667H1512" stroke="#636363" stroke-opacity="0.07"/>
<path d="M0 954.512H1512" stroke="#636363" stroke-opacity="0.07"/>
<path d="M0 944.357H1512" stroke="#636363" stroke-opacity="0.07"/>
<path d="M0 934.204H1512" stroke="#636363" stroke-opacity="0.07"/>
<path d="M0 924.05H1512" stroke="#636363" stroke-opacity="0.07"/>
<path d="M0 913.895H1512" stroke="#636363" stroke-opacity="0.07"/>
<path d="M0 903.741H1512" stroke="#636363" stroke-opacity="0.07"/>
<path d="M0 893.586H1512" stroke="#636363" stroke-opacity="0.07"/>
<path d="M0 883.432H1512" stroke="#636363" stroke-opacity="0.07"/>
<path d="M0 873.277H1512" stroke="#636363" stroke-opacity="0.07"/>
<path d="M0 863.123H1512" stroke="#636363" stroke-opacity="0.07"/>
<path d="M0 852.969H1512" stroke="#636363" stroke-opacity="0.07"/>
<path d="M0 842.814H1512" stroke="#636363" stroke-opacity="0.07"/>
<path d="M0 832.661H1512" stroke="#636363" stroke-opacity="0.07"/>
<path d="M0 822.505H1512" stroke="#636363" stroke-opacity="0.07"/>
<path d="M0 812.351H1512" stroke="#636363" stroke-opacity="0.07"/>
<path d="M0 802.195H1512" stroke="#636363" stroke-opacity="0.07"/>
<path d="M0 792.043H1512" stroke="#636363" stroke-opacity="0.07"/>
<path d="M0 781.888H1512" stroke="#636363" stroke-opacity="0.07"/>
<path d="M0 771.733H1512" stroke="#636363" stroke-opacity="0.07"/>
<path d="M0 761.58H1512" stroke="#636363" stroke-opacity="0.07"/>
<path d="M0 751.425H1512" stroke="#636363" stroke-opacity="0.07"/>
<path d="M0 741.27H1512" stroke="#636363" stroke-opacity="0.07"/>
<path d="M0 731.115H1512" stroke="#636363" stroke-opacity="0.07"/>
<path d="M0 720.962H1512" stroke="#636363" stroke-opacity="0.07"/>
<path d="M0 710.807H1512" stroke="#636363" stroke-opacity="0.07"/>
<path d="M0 700.652H1512" stroke="#636363" stroke-opacity="0.07"/>
<path d="M0 690.499H1512" stroke="#636363" stroke-opacity="0.07"/>
<path d="M0 680.345H1512" stroke="#636363" stroke-opacity="0.07"/>
<path d="M0 670.189H1512" stroke="#636363" stroke-opacity="0.07"/>
<path d="M0 660.034H1512" stroke="#636363" stroke-opacity="0.07"/>
<path d="M0 649.881H1512" stroke="#636363" stroke-opacity="0.07"/>
<path d="M0 639.727H1512" stroke="#636363" stroke-opacity="0.07"/>
<path d="M0 629.571H1512" stroke="#636363" stroke-opacity="0.07"/>
<path d="M0 619.418H1512" stroke="#636363" stroke-opacity="0.07"/>
<path d="M0 609.264H1512" stroke="#636363" stroke-opacity="0.07"/>
<path d="M0 599.108H1512" stroke="#636363" stroke-opacity="0.07"/>
<path d="M0 588.954H1512" stroke="#636363" stroke-opacity="0.07"/>
<path d="M0 578.801H1512" stroke="#636363" stroke-opacity="0.07"/>
<path d="M0 568.646H1512" stroke="#636363" stroke-opacity="0.07"/>
<path d="M0 558.49H1512" stroke="#636363" stroke-opacity="0.07"/>
<path d="M0 548.337H1512" stroke="#636363" stroke-opacity="0.07"/>
<path d="M0 538.184H1512" stroke="#636363" stroke-opacity="0.07"/>
<path d="M0 528.028H1512" stroke="#636363" stroke-opacity="0.07"/>
<path d="M0 517.873H1512" stroke="#636363" stroke-opacity="0.07"/>
<path d="M0 507.72H1512" stroke="#636363" stroke-opacity="0.07"/>
<path d="M0 497.565H1512" stroke="#636363" stroke-opacity="0.07"/>
<path d="M0 487.409H1512" stroke="#636363" stroke-opacity="0.07"/>
<path d="M0 477.256H1512" stroke="#636363" stroke-opacity="0.07"/>
<path d="M0 467.102H1512" stroke="#636363" stroke-opacity="0.07"/>
<path d="M0 456.947H1512" stroke="#636363" stroke-opacity="0.07"/>
<path d="M0 446.792H1512" stroke="#636363" stroke-opacity="0.07"/>
<path d="M0 436.639H1512" stroke="#636363" stroke-opacity="0.07"/>
<path d="M0 426.484H1512" stroke="#636363" stroke-opacity="0.07"/>
<path d="M0 416.33H1512" stroke="#636363" stroke-opacity="0.07"/>
<path d="M0 406.177H1512" stroke="#636363" stroke-opacity="0.07"/>
<path d="M0 396.021H1512" stroke="#636363" stroke-opacity="0.07"/>
<path d="M0 385.866H1512" stroke="#636363" stroke-opacity="0.07"/>
<path d="M0 375.712H1512" stroke="#636363" stroke-opacity="0.07"/>
<path d="M0 365.56H1512" stroke="#636363" stroke-opacity="0.07"/>
<path d="M0 355.403H1512" stroke="#636363" stroke-opacity="0.07"/>
<path d="M0 345.249H1512" stroke="#636363" stroke-opacity="0.07"/>
<path d="M0 335.096H1512" stroke="#636363" stroke-opacity="0.07"/>
<path d="M0 324.94H1512" stroke="#636363" stroke-opacity="0.07"/>
<path d="M0 314.785H1512" stroke="#636363" stroke-opacity="0.07"/>
<path d="M0 304.631H1512" stroke="#636363" stroke-opacity="0.07"/>
<path d="M0 294.478H1512" stroke="#636363" stroke-opacity="0.07"/>
<path d="M0 284.323H1512" stroke="#636363" stroke-opacity="0.07"/>
<path d="M0 274.168H1512" stroke="#636363" stroke-opacity="0.07"/>
<path d="M0 264.015H1512" stroke="#636363" stroke-opacity="0.07"/>
<path d="M0 253.86H1512" stroke="#636363" stroke-opacity="0.07"/>
<path d="M0 243.705H1512" stroke="#636363" stroke-opacity="0.07"/>
<path d="M0 233.55H1512" stroke="#636363" stroke-opacity="0.07"/>
<path d="M0 223.396H1512" stroke="#636363" stroke-opacity="0.07"/>
<path d="M0 213.241H1512" stroke="#636363" stroke-opacity="0.07"/>
<path d="M0 203.088H1512" stroke="#636363" stroke-opacity="0.07"/>
<path d="M0 192.935H1512" stroke="#636363" stroke-opacity="0.07"/>
<path d="M0 182.779H1512" stroke="#636363" stroke-opacity="0.07"/>
<path d="M0 172.624H1512" stroke="#636363" stroke-opacity="0.07"/>
<path d="M0 162.47H1512" stroke="#636363" stroke-opacity="0.07"/>
<path d="M0 152.316H1512" stroke="#636363" stroke-opacity="0.07"/>
<path d="M0 142.161H1512" stroke="#636363" stroke-opacity="0.07"/>
<path d="M0 132.006H1512" stroke="#636363" stroke-opacity="0.07"/>
<path d="M0 121.854H1512" stroke="#636363" stroke-opacity="0.07"/>
<path d="M0 111.699H1512" stroke="#636363" stroke-opacity="0.07"/>
<path d="M0 101.544H1512" stroke="#636363" stroke-opacity="0.07"/>
<path d="M0 91.3887H1512" stroke="#636363" stroke-opacity="0.07"/>
<path d="M0 81.2354H1512" stroke="#636363" stroke-opacity="0.07"/>
<path d="M0 71.0811H1512" stroke="#636363" stroke-opacity="0.07"/>
<path d="M0 60.9248H1512" stroke="#636363" stroke-opacity="0.07"/>
<path d="M0 50.7725H1512" stroke="#636363" stroke-opacity="0.07"/>
<path d="M0 40.6182H1512" stroke="#636363" stroke-opacity="0.07"/>
<path d="M0 30.4639H1512" stroke="#636363" stroke-opacity="0.07"/>
<path d="M0 20.3076H1512" stroke="#636363" stroke-opacity="0.07"/>
<path d="M0 10.1543H1512" stroke="#636363" stroke-opacity="0.07"/>
<path d="M0 0H1512" stroke="#636363" stroke-opacity="0.07"/>
</svg>
